<?xml version="1.0" encoding="UTF-8"?>
<!DOCTYPE svg PUBLIC "-//W3C//DTD SVG 1.1//EN" "http://www.w3.org/Graphics/SVG/1.1/DTD/svg11.dtd">
<svg xmlns="http://www.w3.org/2000/svg" version="1.1" width="32px" height="32px" style="shape-rendering:geometricPrecision; text-rendering:geometricPrecision; image-rendering:optimizeQuality; fill-rule:evenodd; clip-rule:evenodd" xmlns:xlink="http://www.w3.org/1999/xlink">
<g><path style="opacity:0.71" fill="#fefffe" d="M 13.5,1.5 C 18.3276,1.38524 19.6609,3.55191 17.5,8C 23.7387,8.26119 27.0721,11.4279 27.5,17.5C 28.5,17.5 29.5,17.5 30.5,17.5C 30.5,20.1667 30.5,22.8333 30.5,25.5C 29.5,25.5 28.5,25.5 27.5,25.5C 27.67,26.8221 27.3366,27.9887 26.5,29C 19.1667,29.6667 11.8333,29.6667 4.5,29C 3.66337,27.9887 3.33003,26.8221 3.5,25.5C 2.5,25.5 1.5,25.5 0.5,25.5C 0.5,22.8333 0.5,20.1667 0.5,17.5C 1.5,17.5 2.5,17.5 3.5,17.5C 3.86529,11.4455 7.19862,8.27885 13.5,8C 12.232,5.83683 12.232,3.67016 13.5,1.5 Z M 12.5,11.5 C 22.5136,10.8537 26.5136,15.5203 24.5,25.5C 18.5,25.5 12.5,25.5 6.5,25.5C 6.33537,22.4816 6.50204,19.4816 7,16.5C 8.10653,13.887 9.93986,12.2203 12.5,11.5 Z"/></g>
<g><path style="opacity:0.719" fill="#fefffe" d="M 8.5,17.5 C 10.1667,17.5 11.8333,17.5 13.5,17.5C 14.3221,23.2093 12.4888,24.5427 8,21.5C 7.42094,20.0715 7.58761,18.7382 8.5,17.5 Z"/></g>
<g><path style="opacity:0.719" fill="#fefffe" d="M 17.5,17.5 C 19.1992,17.3398 20.8659,17.5065 22.5,18C 23.8133,21.692 22.4799,23.3587 18.5,23C 17.5939,21.3005 17.2606,19.4672 17.5,17.5 Z"/></g>
</svg>
